<svg height="512" viewBox="0 0 64 64" width="512" xmlns="http://www.w3.org/2000/svg"><g id="flat"><path d="m3 24h58a0 0 0 0 1 0 0v14a2 2 0 0 1 -2 2h-54a2 2 0 0 1 -2-2v-14a0 0 0 0 1 0 0z" fill="#394d5c"/><g fill="#aabece"><path d="m19 32v-2h-4v2h-2v4h8v-4z"/><path d="m31 32v-2h-4v2h-2v4h8v-4z"/><path d="m43 32v-2h-4v2h-2v4h8v-4z"/><path d="m55 32v-2h-4v2h-2v4h8v-4z"/></g><path d="m22 27h2v2h-2z" fill="#fcf05a"/><path d="m34 27h2v2h-2z" fill="#fcf05a"/><path d="m46 27h2v2h-2z" fill="#fcf05a"/><path d="m6 35h4v2h-4z" fill="#55b56a"/><path d="m6 31h4v2h-4z" fill="#fcf05a"/><path d="m6 27h4v2h-4z" fill="#dd3e46"/></g></svg>